#Comment line ignore any data following # character 
#Hierarchical Translation and Rotation (.htr) file 
[Header]	
#Header keywords are followed by a single value 
FileType HTR		#Single word string
DataType HTRS		#Translation followed by rotation and scale data
FileVersion 1		#integer
NumSegments 84		#integer
NumFrames 2		#integer
DataFrameRate 30		#integer, data frame rate in this file
EulerRotationOrder ZYX
CalibrationUnits mm
RotationUnits Degrees
GlobalAxisofGravity Y
BoneLengthAxis Y
ScaleFactor 1.00
[SegmentNames&Hierarchy]
#CHILD	PARENT
MASTER GLOBAL
root MASTER
chest root
L_mid_tent01 root
R_mid_tent01 root
spine01 root
Bip01_Neck chest
L_humerus chest
R_humerus chest
weapon_bone chest
Bip01_Head Bip01_Neck
eye_left_bone Bip01_Head
eye_right_bone Bip01_Head
L_forearm L_humerus
L_front_hand L_forearm
L_weapon_bone L_forearm
L_front_hand01_01 L_front_hand
L_front_hand02_01 L_front_hand
L_front_hand03_01 L_front_hand
L_front_hand01_02 L_front_hand01_01
L_front_hand02_02 L_front_hand02_01
L_front_hand03_02 L_front_hand03_01
R_forearm R_humerus
R_front_hand R_forearm
R_weapon_bone R_forearm
R_front_hand01_01 R_front_hand
R_front_hand02_01 R_front_hand
R_front_hand03_01 R_front_hand
R_front_hand01_02 R_front_hand01_01
R_front_hand02_02 R_front_hand02_01
R_front_hand03_02 R_front_hand03_01
null_rope01_connect L_mid_tent01
Rope1_Seg01 null_rope01_connect
Rope1_Seg02 Rope1_Seg01
Rope1_Seg03 Rope1_Seg02
Rope1_Seg04 Rope1_Seg03
Rope1_Seg05 Rope1_Seg04
Rope1_Seg06 Rope1_Seg05
Rope1_Seg07 Rope1_Seg06
Rope1_Seg09 Rope1_Seg07
L_mid_hand01 Rope1_Seg09
L_mid_hand02 Rope1_Seg09
L_mid_hand03 Rope1_Seg09
null_rope02_connect R_mid_tent01
Rope2_Seg01 null_rope02_connect
Rope2_Seg02 Rope2_Seg01
Rope2_Seg03 Rope2_Seg02
Rope2_Seg04 Rope2_Seg03
Rope2_Seg05 Rope2_Seg04
Rope2_Seg06 Rope2_Seg05
Rope2_Seg07 Rope2_Seg06
Rope2_Seg09 Rope2_Seg07
R_mid_hand01 Rope2_Seg09
R_mid_hand02 Rope2_Seg09
R_mid_hand03 Rope2_Seg09
spine02 spine01
spine03 spine02
pelvis spine03
null_rope03_connect pelvis
null_rope04_connect pelvis
Rope3_Seg01 null_rope03_connect
Rope3_Seg02 Rope3_Seg01
Rope3_Seg03 Rope3_Seg02
Rope3_Seg04 Rope3_Seg03
Rope3_Seg05 Rope3_Seg04
Rope3_Seg06 Rope3_Seg05
Rope3_Seg07 Rope3_Seg06
Rope3_Seg08 Rope3_Seg07
Rope3_Seg09 Rope3_Seg08
R_rear_hand01 Rope3_Seg09
R_rear_hand02 Rope3_Seg09
R_rear_hand03 Rope3_Seg09
Rope4_Seg01 null_rope04_connect
Rope4_Seg02 Rope4_Seg01
Rope4_Seg03 Rope4_Seg02
Rope4_Seg04 Rope4_Seg03
Rope4_Seg05 Rope4_Seg04
Rope4_Seg06 Rope4_Seg05
Rope4_Seg07 Rope4_Seg06
Rope4_Seg08 Rope4_Seg07
Rope4_Seg09 Rope4_Seg08
L_rear_hand01 Rope4_Seg09
L_rear_hand02 Rope4_Seg09
L_rear_hand03 Rope4_Seg09
[BasePosition]
#SegmentName Tx, Ty, Tz, Rx, Ry, Rz, BoneLength
MASTER 0.000000 0.000000 0.000000 -90.000000 0.000000 0.000000 10.000000 
root 0.000000 0.000000 0.000000 0.000000 0.000000 0.000000 10.000000 
chest 0.000000 0.000000 0.000000 0.000000 0.000000 0.000000 10.000000 
L_mid_tent01 0.000000 0.000000 0.000000 0.000000 0.000000 0.000000 10.000000 
R_mid_tent01 0.000000 0.000000 0.000000 0.000000 0.000000 0.000000 10.000000 
spine01 0.000000 0.000000 0.000000 0.000000 0.000000 0.000000 10.000000 
Bip01_Neck 0.000000 0.000000 0.000000 0.000000 0.000000 0.000000 10.000000 
L_humerus 0.000000 0.000000 0.000000 0.000000 0.000000 0.000000 10.000000 
R_humerus 0.000000 0.000000 0.000000 0.000000 0.000000 0.000000 10.000000 
weapon_bone 0.000000 0.000000 0.000000 0.000000 0.000000 0.000000 10.000000 
Bip01_Head 0.000000 0.000000 0.000000 0.000000 0.000000 0.000000 10.000000 
eye_left_bone 0.000000 0.000000 0.000000 0.000000 0.000000 0.000000 10.000000 
eye_right_bone 0.000000 0.000000 0.000000 0.000000 0.000000 0.000000 10.000000 
L_forearm 0.000000 0.000000 0.000000 0.000000 0.000000 0.000000 10.000000 
L_front_hand 0.000000 0.000000 0.000000 0.000000 0.000000 0.000000 10.000000 
L_weapon_bone 0.000000 0.000000 0.000000 0.000000 0.000000 0.000000 10.000000 
L_front_hand01_01 0.000000 0.000000 0.000000 0.000000 0.000000 0.000000 10.000000 
L_front_hand02_01 0.000000 0.000000 0.000000 0.000000 0.000000 0.000000 10.000000 
L_front_hand03_01 0.000000 0.000000 0.000000 0.000000 0.000000 0.000000 10.000000 
L_front_hand01_02 0.000000 0.000000 0.000000 0.000000 0.000000 0.000000 10.000000 
L_front_hand02_02 0.000000 0.000000 0.000000 0.000000 0.000000 0.000000 10.000000 
L_front_hand03_02 0.000000 0.000000 0.000000 0.000000 0.000000 0.000000 10.000000 
R_forearm 0.000000 0.000000 0.000000 0.000000 0.000000 0.000000 10.000000 
R_front_hand 0.000000 0.000000 0.000000 0.000000 0.000000 0.000000 10.000000 
R_weapon_bone 0.000000 0.000000 0.000000 0.000000 0.000000 0.000000 10.000000 
R_front_hand01_01 0.000000 0.000000 0.000000 0.000000 0.000000 0.000000 10.000000 
R_front_hand02_01 0.000000 0.000000 0.000000 0.000000 0.000000 0.000000 10.000000 
R_front_hand03_01 0.000000 0.000000 0.000000 0.000000 0.000000 0.000000 10.000000 
R_front_hand01_02 0.000000 0.000000 0.000000 0.000000 0.000000 0.000000 10.000000 
R_front_hand02_02 0.000000 0.000000 0.000000 0.000000 0.000000 0.000000 10.000000 
R_front_hand03_02 0.000000 0.000000 0.000000 0.000000 0.000000 0.000000 10.000000 
null_rope01_connect 0.000000 0.000000 0.000000 0.000000 0.000000 0.000000 10.000000 
Rope1_Seg01 0.000000 0.000000 0.000000 0.000000 0.000000 0.000000 10.000000 
Rope1_Seg02 0.000000 0.000000 0.000000 0.000000 0.000000 0.000000 10.000000 
Rope1_Seg03 0.000000 0.000000 0.000000 0.000000 0.000000 0.000000 10.000000 
Rope1_Seg04 0.000000 0.000000 0.000000 0.000000 0.000000 0.000000 10.000000 
Rope1_Seg05 0.000000 0.000000 0.000000 0.000000 0.000000 0.000000 10.000000 
Rope1_Seg06 0.000000 0.000000 0.000000 0.000000 0.000000 0.000000 10.000000 
Rope1_Seg07 0.000000 0.000000 0.000000 0.000000 0.000000 0.000000 10.000000 
Rope1_Seg09 0.000000 0.000000 0.000000 0.000000 0.000000 0.000000 10.000000 
L_mid_hand01 0.000000 0.000000 0.000000 0.000000 0.000000 0.000000 10.000000 
L_mid_hand02 0.000000 0.000000 0.000000 0.000000 0.000000 0.000000 10.000000 
L_mid_hand03 0.000000 0.000000 0.000000 0.000000 0.000000 0.000000 10.000000 
null_rope02_connect 0.000000 0.000000 0.000000 0.000000 0.000000 0.000000 10.000000 
Rope2_Seg01 0.000000 0.000000 0.000000 0.000000 0.000000 0.000000 10.000000 
Rope2_Seg02 0.000000 0.000000 0.000000 0.000000 0.000000 0.000000 10.000000 
Rope2_Seg03 0.000000 0.000000 0.000000 0.000000 0.000000 0.000000 10.000000 
Rope2_Seg04 0.000000 0.000000 0.000000 0.000000 0.000000 0.000000 10.000000 
Rope2_Seg05 0.000000 0.000000 0.000000 0.000000 0.000000 0.000000 10.000000 
Rope2_Seg06 0.000000 0.000000 0.000000 0.000000 0.000000 0.000000 10.000000 
Rope2_Seg07 0.000000 0.000000 0.000000 0.000000 0.000000 0.000000 10.000000 
Rope2_Seg09 0.000000 0.000000 0.000000 0.000000 0.000000 0.000000 10.000000 
R_mid_hand01 0.000000 0.000000 0.000000 0.000000 0.000000 0.000000 10.000000 
R_mid_hand02 0.000000 0.000000 0.000000 0.000000 0.000000 0.000000 10.000000 
R_mid_hand03 0.000000 0.000000 0.000000 0.000000 0.000000 0.000000 10.000000 
spine02 0.000000 0.000000 0.000000 0.000000 0.000000 0.000000 10.000000 
spine03 0.000000 0.000000 0.000000 0.000000 0.000000 0.000000 10.000000 
pelvis 0.000000 0.000000 0.000000 0.000000 0.000000 0.000000 10.000000 
null_rope03_connect 0.000000 0.000000 0.000000 0.000000 0.000000 0.000000 10.000000 
null_rope04_connect 0.000000 0.000000 0.000000 0.000000 0.000000 0.000000 10.000000 
Rope3_Seg01 0.000000 0.000000 0.000000 0.000000 0.000000 0.000000 10.000000 
Rope3_Seg02 0.000000 0.000000 0.000000 0.000000 0.000000 0.000000 10.000000 
Rope3_Seg03 0.000000 0.000000 0.000000 0.000000 0.000000 0.000000 10.000000 
Rope3_Seg04 0.000000 0.000000 0.000000 0.000000 0.000000 0.000000 10.000000 
Rope3_Seg05 0.000000 0.000000 0.000000 0.000000 0.000000 0.000000 10.000000 
Rope3_Seg06 0.000000 0.000000 0.000000 0.000000 0.000000 0.000000 10.000000 
Rope3_Seg07 0.000000 0.000000 0.000000 0.000000 0.000000 0.000000 10.000000 
Rope3_Seg08 0.000000 0.000000 0.000000 0.000000 0.000000 0.000000 10.000000 
Rope3_Seg09 0.000000 0.000000 0.000000 0.000000 0.000000 0.000000 10.000000 
R_rear_hand01 0.000000 0.000000 0.000000 0.000000 0.000000 0.000000 10.000000 
R_rear_hand02 0.000000 0.000000 0.000000 0.000000 0.000000 0.000000 10.000000 
R_rear_hand03 0.000000 0.000000 0.000000 0.000000 0.000000 0.000000 10.000000 
Rope4_Seg01 0.000000 0.000000 0.000000 0.000000 0.000000 0.000000 10.000000 
Rope4_Seg02 0.000000 0.000000 0.000000 0.000000 0.000000 0.000000 10.000000 
Rope4_Seg03 0.000000 0.000000 0.000000 0.000000 0.000000 0.000000 10.000000 
Rope4_Seg04 0.000000 0.000000 0.000000 0.000000 0.000000 0.000000 10.000000 
Rope4_Seg05 0.000000 0.000000 0.000000 0.000000 0.000000 0.000000 10.000000 
Rope4_Seg06 0.000000 0.000000 0.000000 0.000000 0.000000 0.000000 10.000000 
Rope4_Seg07 0.000000 0.000000 0.000000 0.000000 0.000000 0.000000 10.000000 
Rope4_Seg08 0.000000 0.000000 0.000000 0.000000 0.000000 0.000000 10.000000 
Rope4_Seg09 0.000000 0.000000 0.000000 0.000000 0.000000 0.000000 10.000000 
L_rear_hand01 0.000000 0.000000 0.000000 0.000000 0.000000 0.000000 10.000000 
L_rear_hand02 0.000000 0.000000 0.000000 0.000000 0.000000 0.000000 10.000000 
L_rear_hand03 0.000000 0.000000 0.000000 0.000000 0.000000 0.000000 10.000000 
#Beginning of Data. Separated by tabs
#Fr	Tx	Ty	Tz	Rx	Ry	Rz	SF
[MASTER]
11 0.000000 0.000000 0.000000 0.001660 0.001660 0.001660 0.000000
12 0.000000 0.000000 0.000000 0.001660 0.001660 0.001660 0.000000
[root]
11 -9.219802 -33.331654 658.233093 -106.845909 -15.007133 -78.939598 659.140991
12 -4.291796 -53.737896 576.142273 -104.388107 -14.294959 -80.516312 578.658875
[chest]
11 -84.512650 -34.090519 0.000000 -4.726893 1.010996 167.547226 91.129311
12 -84.512650 -34.090519 0.000000 -8.098738 1.015382 162.184402 91.129311
[L_mid_tent01]
11 27.299532 22.177486 -249.918274 3.376919 26.238567 68.978470 252.381149
12 27.299536 22.177479 -249.918274 2.770235 27.005341 68.882919 252.381149
[R_mid_tent01]
11 23.228794 24.509907 226.238495 -177.070770 -24.403101 56.094086 228.744751
12 23.228794 24.509907 226.238495 -174.251083 -24.333866 55.851006 228.744751
[spine01]
11 -0.361383 -0.195265 0.000000 0.001845 0.001451 13.654368 0.410763
12 -0.361383 -0.195265 0.000000 0.001845 0.001451 13.654368 0.410763
[Bip01_Neck]
11 165.484543 71.581718 0.000119 176.643677 -1.657967 43.431911 180.302734
12 165.484543 71.581718 0.000119 176.643677 -1.657967 43.431911 180.302734
[L_humerus]
11 -13.983130 -135.272980 -120.471481 152.539658 57.264305 -138.577225 181.680161
12 -13.983130 -135.272980 -120.471481 162.328751 42.153923 -146.772141 181.680161
[R_humerus]
11 -13.983309 -135.273102 125.287651 -166.115799 -48.798367 -125.546951 184.909012
12 -13.983309 -135.273102 125.287651 -171.803909 -34.397011 -137.939651 184.909012
[weapon_bone]
11 235.964890 -300.705902 0.000000 0.000000 -89.951546 -128.212341 382.234833
12 235.964890 -300.705902 0.000000 0.000000 -89.951546 -128.212341 382.234833
[Bip01_Head]
11 213.409760 186.015137 7.908344 4.443141 0.096322 -43.897816 283.209991
12 213.326874 186.042130 7.559223 5.200446 6.151311 -43.834991 283.155731
[eye_left_bone]
11 -24.626970 125.451866 -64.772606 0.000000 -90.000000 -99.840431 143.318359
12 -24.626970 125.451866 -64.772606 0.000000 -90.000000 -99.840431 143.318359
[eye_right_bone]
11 -24.626970 125.451866 64.327362 0.000000 -89.980217 80.156380 143.117676
12 -24.626970 125.451866 64.327362 0.000000 -89.965736 80.156380 143.117676
[L_forearm]
11 322.776093 0.000000 -0.000119 0.000356 -0.002321 -107.433723 322.776093
12 322.776093 0.000000 -0.000119 0.000401 -0.002314 -109.648163 322.776093
[L_front_hand]
11 241.149185 -0.042021 -3.300071 -178.667953 -1.835447 -27.422350 241.171753
12 241.149185 -0.042021 -3.300071 -178.667953 -1.835447 -27.422342 241.171753
[L_weapon_bone]
11 156.183838 0.000000 0.000000 0.000014 0.000007 0.000001 156.183838
12 156.183838 0.000000 0.000000 0.000014 0.000007 0.000001 156.183838
[L_front_hand01_01]
11 86.095154 20.947098 -0.655860 -0.349230 -0.490139 73.139862 88.609184
12 86.095154 20.947098 -0.655860 -0.358124 -0.483585 74.301987 88.609184
[L_front_hand02_01]
11 86.935165 -11.437475 24.513514 151.025055 -58.854893 -57.448074 91.046425
12 86.935165 -11.437475 24.513514 152.741364 -59.405788 -59.444736 91.046425
[L_front_hand03_01]
11 86.637497 -14.123976 -20.424902 -150.781433 57.074532 -58.996441 90.126129
12 86.637497 -14.123976 -20.424902 -152.381119 57.628048 -60.890831 90.126129
[L_front_hand01_02]
11 71.020905 -0.000179 0.000030 0.000329 -0.002324 -106.126221 71.020905
12 71.020905 -0.000179 0.000030 0.000332 -0.002324 -106.256096 71.020905
[L_front_hand02_02]
11 71.020927 -0.000119 0.000060 0.000329 -0.002324 -106.126221 71.020927
12 71.020927 -0.000119 0.000060 0.000332 -0.002324 -106.256096 71.020927
[L_front_hand03_02]
11 71.020905 -0.000060 0.000060 0.000329 -0.002324 -106.126221 71.020905
12 71.020905 -0.000060 0.000060 0.000332 -0.002324 -106.256096 71.020905
[R_forearm]
11 322.776428 -0.000060 0.000030 0.209638 0.044558 -103.393578 322.776428
12 322.776428 -0.000060 0.000030 0.208112 0.053187 -105.587929 322.776428
[R_front_hand]
11 238.847015 -0.006795 2.210259 -2.635298 -10.645462 -26.312506 238.857239
12 238.847015 -0.006795 2.210259 -2.635298 -10.645461 -26.312506 238.857239
[R_weapon_bone]
11 155.664093 0.002503 -0.000030 0.003487 0.001180 -90.988930 155.664078
12 155.664093 0.002503 -0.000030 0.003487 0.001180 -90.988930 155.664078
[R_front_hand01_01]
11 87.624611 14.231146 22.918642 -153.536880 -59.633747 60.470901 91.683487
12 87.624611 14.231146 22.918642 -154.633499 -59.950619 61.746044 91.683487
[R_front_hand02_01]
11 89.356956 14.367283 -19.491137 153.567596 57.992992 62.531010 92.579636
12 89.356956 14.367283 -19.491137 154.602661 58.302849 63.744389 92.579636
[R_front_hand03_01]
11 87.286232 -22.307278 -0.143439 0.155617 -0.427176 -75.061508 90.091743
12 87.286232 -22.307278 -0.143439 0.162155 -0.423168 -75.767921 90.091743
[R_front_hand01_02]
11 71.020905 0.000060 0.000119 0.002323 -0.000334 106.381714 71.020905
12 71.020905 0.000060 0.000119 0.002323 -0.000334 106.381706 71.020905
[R_front_hand02_02]
11 71.020844 -0.000030 -0.000119 0.002323 -0.000334 106.381714 71.020836
12 71.020844 -0.000030 -0.000119 0.002323 -0.000334 106.381706 71.020836
[R_front_hand03_02]
11 71.020905 0.000000 0.000030 0.002323 -0.000334 106.381714 71.020905
12 71.020905 0.000000 0.000030 0.002323 -0.000334 106.381706 71.020905
[null_rope01_connect]
11 328.732483 0.000000 -0.000238 -158.385162 -53.216084 -159.360550 328.732483
12 328.732483 0.000000 -0.000238 -157.655777 -54.007599 -161.742905 328.732483
[Rope1_Seg01]
11 0.000000 0.000000 0.000000 108.577026 -8.299326 175.727997 0.000000
12 0.000000 0.000000 0.000000 111.311340 -15.143663 162.511765 0.000000
[Rope1_Seg02]
11 139.999863 -0.000179 0.000000 8.473636 -25.380747 -10.217065 139.999863
12 139.999863 -0.000179 0.000000 2.195926 -19.932436 -9.484243 139.999863
[Rope1_Seg03]
11 139.999924 0.000060 -0.000060 2.010704 -29.548437 -6.987822 139.999924
12 139.999924 0.000060 -0.000060 -0.331646 -21.623402 -9.821030 139.999924
[Rope1_Seg04]
11 139.999924 -0.000060 -0.000119 -2.311721 -15.786862 -3.708751 139.999924
12 139.999924 -0.000060 -0.000119 -2.083545 -13.635250 -6.548254 139.999924
[Rope1_Seg05]
11 139.999832 0.000119 -0.000060 -2.108246 -7.257669 -5.611559 139.999832
12 139.999832 0.000119 -0.000060 -2.261879 -9.557095 -6.335312 139.999832
[Rope1_Seg06]
11 139.999954 0.000119 -0.000060 -2.116585 -6.360036 -7.888204 139.999954
12 139.999954 0.000119 -0.000060 -3.058592 -12.231900 -10.004218 139.999954
[Rope1_Seg07]
11 139.999985 0.000060 0.000000 -1.656286 -6.010136 -5.917182 139.999985
12 139.999985 0.000060 0.000000 -2.765782 -10.319836 -9.226898 139.999985
[Rope1_Seg09]
11 121.602913 0.000119 -0.000089 -89.793175 -1.359789 0.847147 121.602913
12 121.602913 0.000119 -0.000089 -89.793175 -1.359789 0.847147 121.602913
[L_mid_hand01]
11 103.859421 1.038730 8.195221 109.056221 -40.604717 -13.201405 104.187431
12 103.859421 1.038730 8.195221 109.056206 -40.604691 -13.201402 104.187431
[L_mid_hand02]
11 105.572853 -4.139662 -10.864139 -146.713593 31.476528 -37.902313 106.211075
12 105.572853 -4.139662 -10.864139 -146.713593 31.476524 -37.902313 106.211075
[L_mid_hand03]
11 104.641464 17.579376 -3.913581 -14.267233 12.322316 43.898396 106.179977
12 104.641464 17.579376 -3.913581 -14.267233 12.322316 43.898396 106.179977
[null_rope02_connect]
11 328.732849 0.000179 -0.000119 -95.842430 66.993637 37.725746 328.732849
12 328.732849 0.000179 -0.000119 -108.931496 68.928833 25.520384 328.732849
[Rope2_Seg01]
11 0.000076 0.000111 0.000153 -45.117599 -27.875179 38.691055 0.000203
12 0.000076 0.000111 0.000153 -46.500843 -36.737995 40.366276 0.000203
[Rope2_Seg02]
11 139.999741 -0.000060 -0.000119 0.676379 3.998535 10.332644 139.999756
12 139.999741 -0.000060 -0.000119 1.243247 4.234287 8.598146 139.999756
[Rope2_Seg03]
11 140.000107 0.000030 0.000000 1.137899 5.199790 13.112697 140.000107
12 140.000107 0.000030 0.000000 1.908811 6.403553 12.572777 140.000107
[Rope2_Seg04]
11 139.999802 0.000000 -0.000060 1.148666 5.756033 12.170226 139.999802
12 139.999802 0.000000 -0.000060 2.230601 10.153172 15.245631 139.999802
[Rope2_Seg05]
11 139.999985 -0.000060 0.000119 1.184440 4.878185 13.543507 139.999985
12 139.999985 -0.000060 0.000119 1.132225 7.750927 14.907247 139.999985
[Rope2_Seg06]
11 139.999893 -0.000030 -0.000119 3.650289 6.883796 25.143492 139.999893
12 139.999893 -0.000030 -0.000119 2.170985 5.104232 24.636971 139.999893
[Rope2_Seg07]
11 139.999893 0.000060 -0.000060 4.219980 7.099940 21.700237 139.999893
12 139.999893 0.000060 -0.000060 4.369932 5.562617 24.725231 139.999893
[Rope2_Seg09]
11 121.338966 0.000089 -0.000060 33.793236 -1.359788 -0.847141 121.338966
12 121.338966 0.000089 -0.000060 33.793236 -1.359788 -0.847141 121.338966
[R_mid_hand01]
11 104.680779 11.144459 -10.335981 -37.204079 31.906813 37.576260 105.778534
12 104.680779 11.144459 -10.335981 -37.204075 31.906805 37.576256 105.778534
[R_mid_hand02]
11 104.070427 2.443552 8.231699 70.367462 -42.427391 14.067809 104.424065
12 104.070427 2.443552 8.231699 70.367462 -42.427391 14.067809 104.424065
[R_mid_hand03]
11 106.028137 -11.221827 -5.996406 -169.893616 12.226661 -47.211018 106.788818
12 106.028137 -11.221827 -5.996406 -169.893616 12.226658 -47.211018 106.788818
[spine02]
11 129.756927 0.001550 0.000119 -1.023900 -3.926965 6.770994 129.756927
12 129.756927 0.001550 0.000119 -1.023899 -3.926965 6.770993 129.756927
[spine03]
11 78.613846 0.087372 -4.898873 1.040681 4.146420 4.212376 78.766380
12 78.613846 0.087372 -4.898873 1.040681 4.146420 4.212376 78.766380
[pelvis]
11 169.435242 0.051022 0.000000 0.019518 -0.190233 -10.721436 169.435257
12 169.435242 0.051022 0.000000 0.019518 -0.190233 -10.721436 169.435257
[null_rope03_connect]
11 -1.257226 -2.466202 137.391083 159.132111 -72.250565 -66.354256 137.418976
12 -1.257226 -2.466202 137.391083 158.289246 -74.658356 -66.640930 137.418976
[null_rope04_connect]
11 -1.259640 -2.480268 -137.844437 159.132111 -72.250565 -66.354256 137.872513
12 -1.259640 -2.480268 -137.844437 158.289246 -74.658356 -66.640930 137.872513
[Rope3_Seg01]
11 0.000000 0.000000 0.000000 -168.290634 -29.480515 -15.430854 0.000000
12 0.000000 0.000000 0.000000 179.710648 -37.578224 -15.579146 0.000000
[Rope3_Seg02]
11 139.999924 -0.000119 0.000060 18.059446 -8.771414 5.846746 139.999924
12 139.999924 -0.000119 0.000060 15.473095 -9.149546 3.744395 139.999924
[Rope3_Seg03]
11 139.999924 -0.000119 0.000119 22.563566 -12.099238 15.889820 139.999924
12 139.999924 -0.000119 0.000119 25.572206 -15.533290 12.469823 139.999924
[Rope3_Seg04]
11 139.999924 0.000119 0.000000 12.871000 -5.904759 31.568705 139.999924
12 139.999924 0.000119 0.000000 17.666435 -14.131337 33.950844 139.999924
[Rope3_Seg05]
11 139.999924 -0.000238 0.000060 3.004484 0.222735 22.241856 139.999924
12 139.999924 -0.000238 0.000060 3.734774 -0.991859 24.502968 139.999924
[Rope3_Seg06]
11 139.999893 -0.000119 -0.000060 -0.541050 -2.742561 17.516376 139.999893
12 139.999893 -0.000119 -0.000060 0.338290 -0.544270 12.906101 139.999893
[Rope3_Seg07]
11 139.999771 0.000060 -0.000119 -3.800527 -3.583313 18.076378 139.999771
12 139.999771 0.000060 -0.000119 -2.005365 -1.543060 16.749081 139.999771
[Rope3_Seg08]
11 139.999985 -0.000060 0.000000 -3.320801 -2.011460 10.396613 139.999985
12 139.999985 -0.000060 0.000000 -3.937141 -1.314959 14.596198 139.999985
[Rope3_Seg09]
11 90.185997 -0.000179 -0.000060 89.793228 -1.359877 -0.847183 90.185997
12 90.185997 -0.000179 -0.000060 89.793228 -1.359877 -0.847183 90.185997
[R_rear_hand01]
11 103.366196 -6.073594 -10.757982 -164.755127 19.627697 -40.352161 104.101845
12 103.366196 -6.073594 -10.757982 -164.755127 19.627697 -40.352161 104.101845
[R_rear_hand02]
11 100.509819 12.039542 -7.992327 -30.792652 24.782448 38.141541 101.543350
12 100.509819 12.039542 -7.992327 -30.792652 24.782448 38.141541 101.543350
[R_rear_hand03]
11 101.539970 5.215704 5.435467 82.448349 -41.048256 8.840378 101.819031
12 101.539970 5.215704 5.435467 82.448349 -41.048256 8.840378 101.819031
[Rope4_Seg01]
11 -0.000007 -0.000060 -0.000086 79.712021 -51.239719 -133.456390 0.000105
12 -0.000005 -0.000058 -0.000080 79.348145 -46.077866 -136.906570 0.000099
[Rope4_Seg02]
11 139.999985 0.000060 0.000119 -18.752190 4.620454 -26.198580 139.999985
12 139.999985 0.000060 0.000119 -21.231152 6.468268 -26.291834 139.999985
[Rope4_Seg03]
11 139.999924 0.000000 -0.000238 -28.954163 17.595409 -37.134720 139.999924
12 139.999924 0.000000 -0.000238 -22.024452 16.550053 -26.672476 139.999924
[Rope4_Seg04]
11 139.999985 0.000000 0.000119 -8.185487 16.218237 -13.732124 139.999985
12 139.999985 0.000000 0.000119 -7.085974 13.353617 -10.764153 139.999985
[Rope4_Seg05]
11 139.999802 -0.000060 -0.000119 -3.542499 16.362129 -10.146959 139.999802
12 139.999802 -0.000060 -0.000119 -5.602287 20.603617 -12.505760 139.999802
[Rope4_Seg06]
11 139.999924 0.000000 0.000060 -0.364486 19.092001 -10.772534 139.999924
12 139.999924 0.000000 0.000060 -0.415285 24.507343 -12.980773 139.999924
[Rope4_Seg07]
11 139.999802 0.000000 0.000000 2.055072 10.046684 -5.933162 139.999802
12 139.999802 0.000000 0.000000 2.922517 10.910509 -6.143497 139.999802
[Rope4_Seg08]
11 139.999924 0.000000 0.000119 0.235786 5.270147 -3.414043 139.999924
12 139.999924 0.000000 0.000119 0.696948 5.293687 -3.387810 139.999924
[Rope4_Seg09]
11 90.185791 0.000060 0.000060 -135.617828 2.228885 0.850567 90.185791
12 90.185791 0.000060 0.000060 -135.617828 2.228885 0.850567 90.185791
[L_rear_hand01]
11 101.696655 -8.392275 -7.654577 -31.684448 -23.583006 144.025742 102.329041
12 101.696655 -8.392275 -7.654577 -31.684452 -23.583008 144.025742 102.329041
[L_rear_hand02]
11 102.726799 -1.568258 5.773216 82.701553 38.753956 171.553619 102.900848
12 102.726799 -1.568258 5.773216 82.701553 38.753956 171.553619 102.900848
[L_rear_hand03]
11 104.552910 9.721220 -10.420293 -163.975403 -19.004421 -142.009354 105.519653
12 104.552910 9.721220 -10.420293 -163.975403 -19.004421 -142.009338 105.519653
